HIERARCHY
ROOT Hips
{
  OFFSET 0.0000 0.0000 0.0000
  CHANNELS 6 Xposition Yposition Zposition Zrotation Xrotation Yrotation
  JOINT LeftHip
  {
    OFFSET 3.4300 0.0000 -0.0000
    CHANNELS 3 Zrotation Xrotation Yrotation
    JOINT LeftKnee
    {
      OFFSET 0.0000 -18.4700 0.0000
      CHANNELS 3 Zrotation Xrotation Yrotation
      JOINT LeftAnkle
      {
        OFFSET 0.0000 -17.9500 -0.0000
        CHANNELS 3 Zrotation Xrotation Yrotation
        End Site
        {
            OFFSET 0.0000 -3.1200 0.0000
        }
      }
    }
  }
  JOINT RightHip
  {
    OFFSET -3.4300 0.0000 0.0000
    CHANNELS 3 Zrotation Xrotation Yrotation
    JOINT RightKnee
    {
      OFFSET 0.0000 -18.4700 0.0000
      CHANNELS 3 Zrotation Xrotation Yrotation
      JOINT RightAnkle
      {
        OFFSET 0.0000 -17.9500 0.0000
        CHANNELS 3 Zrotation Xrotation Yrotation
        End Site
        {
            OFFSET 0.0000 -3.1200 0.0000
        }
      }
    }
  }
  JOINT Chest
  {
    OFFSET 0.0000 4.5700 -0.0000
    CHANNELS 3 Zrotation Xrotation Yrotation
    JOINT Chest2
    {
      OFFSET 0.0000 6.5700 0.0000
      CHANNELS 3 Zrotation Xrotation Yrotation
      JOINT LeftCollar
      {
        OFFSET 1.0600 4.1900 1.7600
        CHANNELS 3 Zrotation Xrotation Yrotation
        JOINT LeftShoulder
        {
          OFFSET 5.8100 0.0000 -0.0000
          CHANNELS 3 Zrotation Xrotation Yrotation
          JOINT LeftElbow
          {
            OFFSET 0.0000 -12.0800 -0.0000
            CHANNELS 3 Zrotation Xrotation Yrotation
            JOINT LeftWrist
            {
              OFFSET 0.0000 -9.8200 0.0000
              CHANNELS 3 Zrotation Xrotation Yrotation
              End Site
              {
                  OFFSET 0.0000 -7.3700 0.0000
              }
            }
          }
        }
      }
      JOINT RightCollar
      {
        OFFSET -1.0600 4.1900 1.7600
        CHANNELS 3 Zrotation Xrotation Yrotation
        JOINT RightShoulder
        {
          OFFSET -6.0600 0.0000 -0.0000
          CHANNELS 3 Zrotation Xrotation Yrotation
          JOINT RightElbow
          {
            OFFSET 0.0000 -11.0800 -0.0000
            CHANNELS 3 Zrotation Xrotation Yrotation
            JOINT RightWrist
            {
              OFFSET 0.0000 -9.8200 0.0000
              CHANNELS 3 Zrotation Xrotation Yrotation
              End Site
              {
                  OFFSET -0.0000 -7.1400 0.0000
              }
            }
          }
        }
      }
      JOINT Neck
      {
        OFFSET 0.0000 4.0500 0.0000
        CHANNELS 3 Zrotation Xrotation Yrotation
        JOINT Head
        {
          OFFSET 0.0000 5.1900 0.0000
          CHANNELS 3 Zrotation Xrotation Yrotation
          End Site
          {
              OFFSET 0.0000 4.1400 0.0000
          }
        }
      }
    }
  }
}
MOTION
Frames:	24
Frame Time:	0.016667
40.1376 50.0402 24.9213 -2.67 -0.51 -51.30 5.06 -20.54 2.62 0.03 34.87 -2.33 8.75 7.31 -0.99 -4.68 -13.31 -8.87 -0.09 30.65 -8.91 -8.01 1.36 -0.12 3.06 9.13 -0.81 0.13 0.40 -0.10 10.00 0.00 0.00 62.13 -42.22 27.72 -0.93 -77.08 -0.91 10.31 -7.43 -31.53 -10.00 -0.00 -0.00 -6.15 22.42 -48.60 0.43 -66.20 0.39 -18.99 -17.02 19.83 -0.50 -1.18 -1.74 7.47 -15.14 -2.59 
39.9779 48.7964 24.8759 -2.46 0.70 -52.53 6.47 -21.94 2.61 0.01 35.80 -4.74 9.74 6.61 -1.09 -2.71 -15.22 -7.65 -0.11 31.86 -11.65 -8.25 3.05 -0.01 3.39 8.00 -0.86 0.15 0.35 -0.11 10.00 0.00 0.00 53.91 -38.53 20.88 -1.31 -79.58 -1.29 11.02 -6.80 -27.50 -10.00 -0.00 -0.00 -5.01 20.56 -44.13 0.41 -64.95 0.37 -19.86 -16.75 17.33 -0.35 -1.19 -1.21 6.87 -14.64 -1.99 
39.8712 47.4895 24.8822 -3.92 0.49 -53.77 7.58 -21.15 2.38 0.01 37.08 -5.26 10.30 5.74 -1.14 -1.48 -14.56 -7.55 -0.11 32.58 -12.48 -8.36 3.79 0.05 3.49 9.42 -0.93 0.15 0.42 -0.11 10.00 0.00 0.00 47.02 -35.63 15.75 -1.39 -79.87 -1.37 12.23 -6.44 -25.35 -10.00 -0.00 -0.00 -4.89 18.76 -38.30 0.40 -63.97 0.36 -21.59 -15.65 13.23 -0.34 -1.19 -1.18 7.25 -14.38 -2.01 
39.5753 46.1398 24.9336 -5.41 0.67 -54.32 9.33 -20.60 2.92 0.01 39.20 -6.40 11.62 3.79 -1.13 -0.01 -13.43 -7.42 -0.12 32.92 -13.22 -9.14 2.47 -0.14 4.10 10.15 -1.12 0.18 0.45 -0.13 10.00 0.00 0.00 40.22 -32.62 10.31 -1.21 -78.72 -1.19 13.84 -6.39 -25.53 -10.00 -0.00 -0.00 -3.64 17.58 -33.80 0.43 -64.80 0.39 -23.32 -14.48 10.17 -0.56 -1.18 -1.93 6.39 -14.25 -2.75 
39.2587 44.7898 25.0411 -7.62 0.78 -55.08 11.65 -19.44 4.58 -0.00 41.88 -8.69 12.95 1.41 -0.74 1.49 -11.67 -7.28 -0.12 33.89 -12.80 -9.66 0.61 -0.45 5.20 11.56 -1.49 0.22 0.51 -0.17 10.00 0.00 0.00 34.00 -28.86 5.86 -0.99 -76.93 -0.97 13.63 -6.55 -25.83 -10.00 -0.00 -0.00 -2.58 16.72 -29.33 0.52 -67.06 0.48 -25.67 -12.88 6.14 -0.68 -1.18 -2.35 5.13 -14.59 -3.07 
38.9688 43.5938 25.2501 -10.32 0.05 -55.55 13.11 -17.14 5.56 -0.00 44.43 -9.80 15.09 -1.34 -0.22 2.00 -8.76 -8.15 -0.11 34.93 -10.86 -10.04 -1.39 -0.82 5.72 13.74 -1.74 0.24 0.61 -0.20 10.00 0.00 0.00 28.71 -25.32 1.72 -0.79 -74.47 -0.76 13.35 -7.50 -25.32 -10.00 -0.00 -0.00 -2.36 16.81 -25.40 0.62 -69.49 0.58 -24.55 -12.51 5.23 -0.74 -1.17 -2.56 5.64 -14.76 -3.33 
38.7230 42.5502 25.3784 -11.97 0.60 -56.94 15.43 -16.25 7.65 -0.01 47.10 -11.19 16.82 -3.87 0.51 3.20 -7.74 -7.80 -0.11 36.26 -9.47 -11.13 -3.67 -1.30 6.85 14.45 -2.13 0.29 0.64 -0.24 10.00 0.00 0.00 24.13 -20.15 -1.01 -0.72 -73.10 -0.69 14.33 -7.67 -23.06 -10.00 -0.00 -0.00 -2.59 16.30 -21.01 0.77 -72.38 0.74 -23.44 -11.43 3.76 -0.70 -1.17 -2.44 4.18 -14.97 -3.05 
38.5934 41.8591 25.4441 -12.09 1.54 -58.60 17.00 -16.28 9.53 -0.01 48.53 -11.82 17.83 -5.41 1.08 4.02 -8.04 -7.05 -0.10 36.83 -8.32 -12.04 -5.12 -1.65 7.15 13.98 -2.20 0.30 0.62 -0.25 10.00 0.00 0.00 20.60 -15.13 -2.90 -0.61 -71.17 -0.58 13.27 -9.00 -23.20 -10.00 -0.00 -0.00 -3.12 16.06 -15.94 1.06 -76.05 1.03 -21.94 -11.22 2.84 -0.58 -1.18 -2.02 3.88 -15.70 -2.54 
38.4652 41.5514 25.4612 -13.17 1.36 -59.80 17.97 -14.67 10.91 -0.01 48.87 -12.70 18.39 -6.03 1.37 4.49 -6.62 -6.61 -0.10 36.57 -7.67 -12.96 -5.89 -1.91 6.99 15.15 -2.22 0.29 0.67 -0.25 10.00 0.00 0.00 17.99 -11.50 -4.66 -0.50 -68.66 -0.47 12.40 -10.14 -23.16 -10.00 -0.00 -0.00 -3.25 15.67 -11.63 1.70 -80.48 1.68 -21.15 -13.04 2.62 -0.54 -1.18 -1.87 3.99 -16.29 -2.37 
38.5851 41.7594 25.8091 -14.10 -1.48 -59.55 14.27 -11.59 8.38 -0.01 46.80 -10.98 18.10 -5.18 1.15 1.23 -3.27 -9.56 -0.08 35.02 -4.99 -13.57 -5.78 -1.93 5.67 17.78 -1.92 0.23 0.78 -0.20 10.00 0.00 0.00 15.50 -10.78 -7.54 -0.39 -65.09 -0.36 11.38 -11.50 -21.71 -10.00 -0.00 -0.00 -3.37 15.27 -11.12 3.89 -85.46 3.88 -20.31 -17.99 6.55 -0.85 -1.17 -2.96 2.73 -17.18 -3.44 
38.8284 42.0287 25.7177 -9.74 0.09 -62.03 12.97 -14.93 9.05 0.01 45.10 -8.47 16.57 -4.10 1.01 0.50 -8.02 -7.75 -0.07 34.35 -4.33 -13.93 -5.03 -1.75 3.90 13.40 -1.18 0.17 0.59 -0.14 10.00 0.00 0.00 14.32 -6.96 -7.14 -0.36 -63.98 -0.33 10.10 -11.46 -21.72 -10.00 -0.00 -0.00 -5.67 14.63 -7.26 173.20 -87.05 173.21 -20.65 -16.26 9.31 -0.63 -1.18 -2.19 2.93 -15.89 -2.64 
39.1769 42.6820 25.8872 -5.72 -1.89 -63.04 7.07 -15.09 6.05 0.03 39.58 -4.07 14.56 -1.26 0.29 -3.85 -9.60 -9.16 -0.04 31.61 -1.38 -14.00 -3.59 -1.37 -0.11 11.10 0.03 -0.00 0.49 -0.00 10.00 0.00 0.00 14.04 -4.50 -8.49 -0.39 -64.71 -0.35 9.01 -9.93 -21.26 -10.00 -0.00 -0.00 -8.00 13.31 -9.29 177.92 -79.10 177.96 -18.02 -12.00 12.47 -0.81 -1.17 -2.81 3.05 -14.70 -3.35 
39.4751 43.6841 26.0795 -3.10 -6.05 -65.10 -0.24 -11.36 2.97 0.04 30.84 1.77 14.77 2.21 -0.42 -9.46 -8.34 -11.00 0.01 26.87 4.27 -17.91 -2.86 -1.25 -6.00 11.12 1.69 -0.26 0.49 0.20 10.00 0.00 0.00 15.65 -1.21 -11.24 -0.43 -65.99 -0.40 10.46 -8.34 -20.09 -10.00 -0.00 -0.00 -13.34 13.06 -8.53 178.61 -71.49 178.68 -20.62 -8.39 9.97 -1.14 -1.15 -3.95 2.81 -13.48 -4.60 
39.8325 44.8007 26.0120 0.61 -5.00 -66.35 -1.18 -14.24 2.82 0.05 27.79 4.40 13.97 5.14 -0.68 -9.82 -11.90 -10.62 0.00 24.43 3.30 -17.85 -0.33 -0.69 -6.95 7.50 1.76 -0.30 0.33 0.24 10.00 0.00 0.00 15.85 1.27 -13.13 -0.41 -65.25 -0.37 11.52 -7.63 -21.03 -10.00 -0.00 -0.00 -17.41 11.64 -9.13 178.84 -65.97 178.95 -19.09 -7.00 11.03 -1.12 -1.15 -3.87 2.79 -11.67 -4.54 
40.2855 45.8619 25.6233 7.47 1.17 -67.49 3.24 -24.83 5.31 0.05 29.55 3.25 12.23 6.98 -0.61 -5.52 -20.97 -6.33 -0.03 22.54 -1.91 -16.74 2.85 -0.13 -3.80 -1.67 0.68 -0.17 -0.07 0.14 10.00 0.00 0.00 15.53 5.16 -14.11 -0.45 -66.66 -0.41 11.63 -7.48 -21.47 -10.00 -0.00 -0.00 -20.74 9.97 -8.90 178.96 -62.04 179.09 -16.44 -8.44 15.25 -1.17 -1.15 -4.05 0.82 -9.00 -4.48 
40.5413 47.2647 25.5371 10.32 1.58 -68.92 3.16 -26.43 5.59 0.05 26.38 4.20 9.75 10.60 -0.85 -5.85 -23.25 -5.43 -0.03 20.32 -2.41 -15.56 5.68 0.37 -5.01 -4.22 0.79 -0.22 -0.18 0.18 10.00 0.00 0.00 16.89 7.16 -14.68 -0.59 -70.04 -0.55 12.09 -6.52 -19.74 -10.00 -0.00 -0.00 -24.51 7.67 -12.16 179.03 -58.58 179.18 -14.86 -8.46 15.80 -1.12 -1.15 -3.87 2.69 -7.31 -4.59 
40.7817 48.6391 25.4833 11.25 1.62 -70.15 3.62 -27.01 6.24 0.05 25.51 4.74 6.93 13.00 -0.79 -5.94 -24.20 -4.95 -0.03 19.82 -2.67 -14.53 7.74 0.65 -5.10 -4.63 0.78 -0.23 -0.20 0.18 10.00 0.00 0.00 17.95 8.54 -13.79 -0.85 -74.32 -0.82 12.67 -4.82 -18.07 -10.00 -0.00 -0.00 -28.70 4.27 -15.34 179.07 -56.54 179.22 -15.31 -8.56 15.47 -1.12 -1.15 -3.88 0.86 -6.44 -4.31 
40.9693 49.9454 25.4787 10.80 1.34 -69.85 3.83 -27.10 6.32 0.04 27.22 2.54 6.61 14.63 -0.86 -6.38 -24.08 -5.44 -0.04 21.61 -4.87 -14.52 8.66 0.81 -5.18 -3.49 0.84 -0.23 -0.15 0.18 10.00 0.00 0.00 20.24 7.99 -13.55 -1.22 -77.96 -1.20 13.39 -3.07 -15.56 -10.00 -0.00 -0.00 -32.91 1.48 -20.75 179.08 -55.29 179.25 -15.68 -8.04 14.29 -1.27 -1.14 -4.40 -0.24 -5.77 -4.67 
41.1519 51.1012 25.4351 9.13 0.89 -68.82 4.15 -26.53 6.18 0.03 30.89 0.06 6.98 16.27 -1.09 -6.71 -23.11 -5.84 -0.05 24.99 -5.58 -14.29 8.45 0.82 -4.81 -0.95 0.88 -0.21 -0.04 0.17 10.00 0.00 0.00 23.19 5.96 -12.96 -1.74 -80.86 -1.72 14.18 -1.43 -13.25 -10.00 -0.00 -0.00 -37.05 -1.76 -26.40 179.08 -54.99 179.25 -16.93 -6.80 11.62 -1.49 -1.12 -5.15 -2.41 -5.41 -5.09 
41.3844 52.1135 25.4567 7.06 0.11 -67.91 4.01 -26.01 5.35 0.05 35.89 0.16 6.25 17.26 -1.21 -7.27 -22.06 -6.76 -0.07 29.47 -6.14 -13.40 7.91 0.80 -4.73 2.19 0.99 -0.21 0.10 0.16 10.00 0.00 0.00 26.39 2.69 -11.35 -2.06 -82.03 -2.04 15.22 -0.76 -11.36 -10.00 -0.00 -0.00 -42.48 -5.07 -33.38 179.06 -55.74 179.23 -17.53 -4.80 6.64 -1.50 -1.12 -5.20 -1.99 -5.03 -5.20 
41.6481 53.0101 25.4607 5.29 -0.64 -67.16 3.96 -26.15 4.61 0.06 41.59 -0.16 6.03 17.54 -1.36 -7.82 -21.48 -7.70 -0.09 34.31 -7.50 -13.00 7.47 0.81 -4.57 4.94 1.06 -0.20 0.22 0.15 10.00 0.00 0.00 29.83 -1.08 -8.79 -2.06 -81.96 -2.04 15.91 -0.32 -9.32 -10.00 -0.00 -0.00 -46.85 -8.88 -38.81 179.03 -57.53 179.18 -17.26 -4.27 4.84 -1.55 -1.12 -5.39 -1.56 -4.54 -5.47 
41.8003 53.7098 25.4212 2.07 -1.66 -66.13 4.68 -25.01 4.51 0.09 47.75 -0.94 6.06 17.31 -1.53 -7.95 -19.51 -8.60 -0.12 39.52 -8.34 -13.16 7.11 0.74 -3.82 9.05 1.01 -0.16 0.40 0.12 10.00 0.00 0.00 33.65 -5.29 -5.63 -1.85 -81.14 -1.83 16.04 0.11 -7.42 -10.00 -0.00 -0.00 -49.34 -13.35 -41.92 178.99 -59.93 179.13 -16.42 -5.71 6.77 -1.70 -1.10 -5.89 -2.57 -4.35 -5.82 
41.9801 54.1643 25.4930 -0.21 -3.13 -65.31 4.25 -24.64 3.81 0.13 53.84 -0.62 6.69 16.64 -1.73 -9.47 -18.47 -10.58 -0.15 45.28 -8.48 -13.09 6.22 0.57 -3.93 12.16 1.14 -0.17 0.54 0.12 10.00 0.00 0.00 37.04 -10.10 -1.72 -1.30 -78.10 -1.27 16.17 0.48 -6.37 -10.00 -0.00 -0.00 -52.04 -16.81 -44.38 178.93 -62.60 179.05 -16.01 -6.51 6.71 -1.78 -1.09 -6.19 -1.70 -4.09 -6.29 
42.1595 54.4865 25.4870 -2.47 -4.22 -65.29 4.64 -24.06 3.97 0.18 59.00 -0.08 6.88 15.86 -1.75 -10.17 -17.36 -11.61 -0.18 49.89 -8.83 -13.28 5.77 0.47 -3.58 14.97 1.12 -0.15 0.66 0.11 10.00 0.00 0.00 40.27 -13.21 3.07 -0.93 -74.54 -0.90 16.03 0.10 -5.07 -10.00 -0.00 -0.00 -53.85 -21.35 -44.67 178.82 -66.47 178.92 -15.64 -7.74 7.79 -1.92 -1.08 -6.67 -2.52 -3.25 -6.63 
